<svg xmlns="http://www.w3.org/2000/svg" viewBox="0 0 649.49 172"><defs><style>.cls-1{fill:#fff;}</style></defs><g id="Lager_1" data-name="Lager 1"><path class="cls-1" d="M658.42,565.61h-.3c-5.85,10.8-18.45,16.95-31.65,16.95A42.63,42.63,0,0,1,583.58,540c0-24,19.34-43.5,42.89-43.5,13.2,0,24.9,6.15,31.65,16.8h.3v-14.7h10.5v73.35c0,29.7-21.6,40.94-40,40.94-20.25,0-36.45-11.1-42-30.14H598c5.4,13.34,16.5,20.7,30.75,20.7,18.6,0,29.7-12.6,29.7-30Zm.6-26c0-17.85-14.1-33.75-32.7-33.75-17.7,0-32.25,15.45-32.25,33.75,0,17.85,14.1,33.45,32.4,33.45S659,557.36,659,539.66Z" transform="translate(-583.58 -441)"/><path class="cls-1" d="M685.27,540.11c0-24.15,19.5-43.65,42.75-43.65,23.85,0,43.05,20.1,43.05,43.05,0,23.85-20,43-43.05,43S685.27,562.91,685.27,540.11Zm75.3-1.05c0-17.85-14.4-33.15-32.55-33.15-17.85,0-32.25,15.45-32.25,34.05,0,18,14.55,33.15,32.4,33.15C746.62,573.11,760.57,557.81,760.57,539.06Z" transform="translate(-583.58 -441)"/><path class="cls-1" d="M787,580.61v-111h10.5v111Z" transform="translate(-583.58 -441)"/><path class="cls-1" d="M822.82,580.61V508H810.07v-9.45h12.75c0-22.5,10.65-30.45,31.5-30.9v9.75H854c-14.55,0-20.7,6-20.7,20.55v.6h21V508h-21v72.6Z" transform="translate(-583.58 -441)"/><path class="cls-1" d="M863.32,497.36h23.25v8.85a19.57,19.57,0,0,1,5.1-5.85c3.6-3,9.45-5.85,18.15-5.85a25.41,25.41,0,0,1,19,7.95,28.15,28.15,0,0,1,5,6.9,34,34,0,0,1,6-7.2,29.53,29.53,0,0,1,20.4-7.65c5.85,0,15.15,1.35,21.9,8.4,7.8,8.25,9,13.8,9,32.25v45.45h-24.9V536.36c0-3.45,0-8-1.65-11.7s-4.65-6.75-11.1-6.75c-6.9,0-10.35,3.15-12,6.9-1.8,3.75-1.8,8-1.8,10.35v45.45h-24.9v-45.3c0-2.25,0-6.6-1.5-10.35-1.65-3.9-4.65-7.05-10.95-7.05-7.05,0-10.5,3.3-12.3,7.35s-1.8,8.55-1.8,11.1v44.25h-24.9Z" transform="translate(-583.58 -441)"/><path class="cls-1" d="M1042,494v3s-7.86,7.44-8.43,13.22,0,70.39,0,70.39L1021,613l-12.33-32.39s.67-65.17,0-70.39S1000,497,1000,497v-3s8,6,21,6S1042,494,1042,494Z" transform="translate(-583.58 -441)"/><path class="cls-1" d="M1051.57,497.36h23.25v8.85c2.85-4,8.1-11.7,23-11.7,28,0,30.9,22.8,30.9,34v52.05h-24.9V535.16c0-9.15-2-17.25-13-17.25-12.3,0-14.25,8.85-14.25,17.4v45.3h-24.9Z" transform="translate(-583.58 -441)"/><path class="cls-1" d="M1233.06,580.61h-23.69v-9c-2.41,3.45-8.4,11.7-25.2,11.7-25.2,0-41.7-19.5-41.7-44.55,0-28.2,20.1-44.25,41.25-44.25,14.7,0,21.75,7.2,24.45,9.9v-34.8h24.89Zm-65.69-41.85c0,12.75,9.15,21.3,20.85,21.3a21.89,21.89,0,0,0,15.45-6.3,21.92,21.92,0,0,0-.3-30.15,20.72,20.72,0,0,0-14.85-5.85c-14.4,0-21.15,11.25-21.15,20.85Z" transform="translate(-583.58 -441)"/></g><g id="Lager_2" data-name="Lager 2"><path class="cls-1" d="M1020.5,441a26.5,26.5,0,1,0,26.5,26.5A26.49,26.49,0,0,0,1020.5,441Zm-4.12,26.82a2.25,2.25,0,1,1-2.26,2.25A2.24,2.24,0,0,1,1016.38,467.82Zm-7.76-2.5a2.25,2.25,0,1,1-2.24,2.25A2.26,2.26,0,0,1,1008.62,465.32Zm-4-7.37a2.25,2.25,0,1,1-2.24,2.25A2.25,2.25,0,0,1,1004.62,458ZM999,468.57a2.25,2.25,0,1,1,2.25,2.25A2.25,2.25,0,0,1,999,468.57Zm4.5,9.63a2.25,2.25,0,1,1,2.25-2.25A2.25,2.25,0,0,1,1003.5,478.2Zm4.88,6.37a2.25,2.25,0,1,1,2.24-2.25A2.26,2.26,0,0,1,1008.38,484.57Zm3.24-7a2.25,2.25,0,1,1,2.26-2.25A2.24,2.24,0,0,1,1011.62,477.57Zm4.76,7.75a2.25,2.25,0,1,1,2.24-2.25A2.26,2.26,0,0,1,1016.38,485.32Zm4.37-6.25a2.25,2.25,0,1,1,2.25-2.25A2.25,2.25,0,0,1,1020.75,479.07Z" transform="translate(-583.58 -441)"/></g></svg>